<svg width="28" height="27" viewBox="0 0 28 27" fill="none" xmlns="http://www.w3.org/2000/svg">
<path d="M27.4286 22.5711H6.98294C6.6896 22.5711 6.45154 22.3182 6.45154 22.0065C6.45154 21.6948 6.6896 21.4418 6.98294 21.4418H26.5082L15.999 2.09984L15.6282 2.75077C15.4819 3.02105 15.157 3.11403 14.9027 2.95856C14.6483 2.8031 14.5608 2.45791 14.7071 2.18764L15.5377 0.687859C15.6323 0.51282 15.808 0.405162 15.9979 0.404785C16.1878 0.404785 16.3632 0.512444 16.4581 0.687106L27.8888 21.7242C27.9838 21.8988 27.9838 22.1141 27.8888 22.2888C27.7939 22.4635 27.6185 22.5711 27.4286 22.5711Z" fill="#353535"/>
<path d="M2.17094 22.5711H0.531397C0.341511 22.5711 0.16615 22.4635 0.0712072 22.2888C-0.0237357 22.1141 -0.0237357 21.8988 0.0712072 21.7242L11.5019 0.687106C11.5969 0.512444 11.7722 0.404785 11.9621 0.404785C12.152 0.404785 12.3273 0.512444 12.4223 0.687106L22.617 19.4494C22.8339 19.8763 22.7259 20.105 22.4719 20.2608C22.2745 20.382 21.9455 20.4007 21.6494 19.9113L11.9621 2.09871L1.45178 21.4418H2.17094C2.46427 21.4418 2.70233 21.6948 2.70233 22.0065C2.70233 22.3182 2.46427 22.5711 2.17094 22.5711Z" fill="#353535"/>
<path d="M25.4108 26.3067H2.54971C2.35982 26.3067 2.18446 26.1991 2.08952 26.0244C1.99457 25.8497 1.99457 25.6344 2.08952 25.4597L12.3062 6.65684C12.4529 6.38695 12.7781 6.29434 13.0321 6.45019C13.2861 6.60603 13.3732 6.95159 13.2266 7.22149L3.47009 25.1774H24.4918L24.183 24.5294C24.0367 24.2592 24.1242 23.914 24.3786 23.7585C24.633 23.603 24.9578 23.696 25.1041 23.9663L25.8717 25.4609C25.9663 25.6355 25.9663 25.8509 25.8713 26.0251C25.7764 26.1998 25.601 26.3071 25.4111 26.3071L25.4108 26.3067Z" fill="#353535"/>
</svg>
