<svg width="88" height="27" viewBox="0 0 88 27" fill="none" xmlns="http://www.w3.org/2000/svg">
<path d="M3.59455 24.7217C3.65405 24.7217 3.70777 24.7461 3.7557 24.7948C3.80529 24.8419 3.83008 24.8948 3.83008 24.9536C3.83008 25.0007 3.82182 25.041 3.80529 25.0747C3.72265 25.2595 3.60529 25.4318 3.45323 25.5915C3.30283 25.7495 3.12349 25.8764 2.91524 25.9722C2.70698 26.068 2.4731 26.1159 2.21361 26.1159C1.95742 26.1159 1.72602 26.0663 1.51942 25.9672C1.31281 25.868 1.13596 25.7327 0.988859 25.5612C0.84341 25.3881 0.731017 25.1898 0.651681 24.9662C0.573998 24.741 0.535156 24.5032 0.535156 24.2527C0.535156 24.0057 0.574824 23.7703 0.65416 23.5468C0.733496 23.3233 0.846715 23.1258 0.993818 22.9543C1.14092 22.7812 1.31695 22.6451 1.5219 22.5459C1.72685 22.4467 1.95494 22.3971 2.20617 22.3971C2.46071 22.3971 2.69128 22.4434 2.89788 22.5358C3.10614 22.6266 3.2863 22.7484 3.43836 22.9014C3.59207 23.0526 3.7119 23.219 3.79785 23.4006C3.81603 23.4359 3.82512 23.4728 3.82512 23.5115C3.82512 23.5737 3.80281 23.6308 3.75818 23.6829C3.71521 23.7334 3.6648 23.7586 3.60695 23.7586C3.55075 23.7586 3.49951 23.7468 3.45323 23.7233C3.40861 23.6981 3.37472 23.6611 3.35158 23.6124C3.25903 23.4174 3.11358 23.2501 2.91524 23.1106C2.71855 22.9711 2.48219 22.9014 2.20617 22.9014C1.96651 22.9014 1.75825 22.9636 1.5814 23.0879C1.4062 23.2123 1.27067 23.3779 1.1748 23.5846C1.07894 23.7897 1.03101 24.0141 1.03101 24.2578C1.03101 24.5032 1.07811 24.7284 1.17232 24.9335C1.26819 25.1385 1.40372 25.3024 1.57892 25.4251C1.75577 25.5478 1.96568 25.6091 2.20865 25.6091C2.39046 25.6091 2.55657 25.5755 2.70698 25.5083C2.85904 25.4394 2.99044 25.3486 3.10118 25.236C3.21192 25.1234 3.29621 25.0024 3.35406 24.873C3.39869 24.7721 3.47885 24.7217 3.59455 24.7217Z" fill="white"/>
<path d="M6.851 25.8789C6.851 25.9445 6.82703 26.0016 6.7791 26.0504C6.73282 26.0974 6.68241 26.121 6.62787 26.121C6.58159 26.121 6.54109 26.1041 6.50638 26.0705C6.47167 26.0386 6.44771 26.0142 6.43448 25.9974C6.28408 25.8898 6.1535 25.768 6.04276 25.6318C5.93367 25.494 5.84029 25.3444 5.76261 25.1831C5.69484 25.0385 5.62542 24.9259 5.55435 24.8452C5.48493 24.7645 5.40064 24.7074 5.30147 24.6738C5.2023 24.6402 5.07337 24.6225 4.9147 24.6208L4.68909 24.6183L4.69157 25.8386V25.8436C4.69157 25.9109 4.66678 25.9697 4.61719 26.0201C4.56926 26.0705 4.51141 26.0957 4.44365 26.0957C4.37588 26.0957 4.3172 26.0688 4.26762 26.0151C4.21969 25.9613 4.19572 25.8974 4.19572 25.8234L4.18828 22.6946C4.18828 22.624 4.21225 22.5652 4.26018 22.5182C4.30977 22.4694 4.36761 22.4442 4.43373 22.4425L5.09321 22.44H5.15023C5.43452 22.44 5.68823 22.4829 5.91136 22.5686C6.13449 22.6526 6.31052 22.7795 6.43944 22.9493C6.56836 23.1174 6.63282 23.3266 6.63282 23.5771C6.63282 23.7384 6.59977 23.8821 6.53365 24.0082C6.46919 24.1342 6.38407 24.241 6.27829 24.3284C6.17251 24.4158 6.05846 24.4838 5.93615 24.5326C5.99235 24.6049 6.04855 24.6939 6.10474 24.7998C6.20061 24.9864 6.29399 25.152 6.3849 25.2965C6.4758 25.4394 6.59563 25.5654 6.74439 25.6747C6.77414 25.6949 6.79893 25.7234 6.81877 25.7604C6.84025 25.7957 6.851 25.8352 6.851 25.8789ZM5.16263 22.9442H4.68413L4.68909 24.1494L5.16759 24.1443C5.47171 24.141 5.70972 24.0939 5.88161 24.0031C6.05516 23.9124 6.14193 23.767 6.14193 23.567C6.14193 23.3619 6.0502 23.2073 5.86674 23.1031C5.68327 22.9972 5.44857 22.9442 5.16263 22.9442Z" fill="white"/>
<path d="M7.22408 22.6921C7.22408 22.6249 7.24804 22.5677 7.29597 22.5207C7.34556 22.4719 7.40423 22.4476 7.472 22.4476L9.59672 22.4501H9.5992C9.66696 22.4501 9.72481 22.4753 9.77274 22.5257C9.82233 22.5745 9.84712 22.6333 9.84712 22.7022C9.84712 22.7711 9.82233 22.8308 9.77274 22.8812C9.72481 22.9299 9.66696 22.9543 9.5992 22.9543H9.59672L7.71993 22.9518L7.7224 23.9855L9.39342 23.9981C9.46449 23.9981 9.52317 24.0233 9.56945 24.0737C9.61738 24.1242 9.64134 24.1889 9.64134 24.2679C9.64134 24.3351 9.61573 24.3922 9.56449 24.4393C9.51325 24.4847 9.45623 24.5074 9.39342 24.5074H9.39094L7.72488 24.4948L7.72736 25.5612L9.59672 25.5587H9.5992C9.66696 25.5587 9.72481 25.5839 9.77274 25.6344C9.82233 25.6831 9.84712 25.7419 9.84712 25.8108C9.84712 25.8798 9.82233 25.9394 9.77274 25.9898C9.72481 26.0386 9.66696 26.063 9.5992 26.063H9.59672L7.47944 26.0655C7.41167 26.0655 7.353 26.0411 7.30341 25.9924C7.25548 25.9419 7.23151 25.8831 7.23151 25.8159L7.22408 22.6921Z" fill="white"/>
<path d="M11.5317 22.5434C11.5499 22.5013 11.5805 22.466 11.6235 22.4375C11.6681 22.4072 11.7135 22.3921 11.7598 22.3921C11.8044 22.3921 11.8491 22.4072 11.8937 22.4375C11.94 22.466 11.9714 22.5013 11.9879 22.5434L13.3515 25.7604C13.3664 25.794 13.3738 25.8285 13.3738 25.8638C13.3738 25.9327 13.349 25.9924 13.2994 26.0428C13.2515 26.0915 13.1936 26.1159 13.1259 26.1159C13.0796 26.1159 13.0341 26.1008 12.9895 26.0705C12.9449 26.0403 12.9135 26.0041 12.8953 25.9621L12.4714 24.9612L11.0582 24.941L10.6243 25.9646C10.6078 26.0067 10.5772 26.0428 10.5326 26.073C10.488 26.105 10.4425 26.121 10.3962 26.121C10.3285 26.121 10.2698 26.0966 10.2202 26.0478C10.1723 25.9974 10.1483 25.9377 10.1483 25.8688C10.1483 25.8335 10.1557 25.7991 10.1706 25.7655L11.5317 22.5434ZM11.7598 23.2821L11.2714 24.4393L12.2557 24.4519L11.7598 23.2821Z" fill="white"/>
<path d="M13.608 22.7047C13.608 22.6358 13.632 22.577 13.6799 22.5282C13.7295 22.4778 13.7882 22.4526 13.856 22.4526H13.8585L16.3352 22.4375H16.3402C16.4079 22.4375 16.4658 22.4627 16.5137 22.5131C16.5633 22.5619 16.5881 22.6207 16.5881 22.6896C16.5881 22.7585 16.5633 22.8182 16.5137 22.8686C16.4658 22.9173 16.4079 22.9417 16.3402 22.9417H16.3377L15.351 22.9468L15.3386 25.8411V25.8436C15.3386 25.9109 15.3138 25.9688 15.2642 26.0176C15.2163 26.0663 15.1584 26.0907 15.0906 26.0907C15.0229 26.0907 14.9642 26.0663 14.9146 26.0176C14.8667 25.9688 14.8427 25.9109 14.8427 25.8436V25.8386L14.8551 22.9493L13.8585 22.9568H13.856C13.7882 22.9568 13.7295 22.9325 13.6799 22.8837C13.632 22.8333 13.608 22.7736 13.608 22.7047Z" fill="white"/>
<path d="M17.1992 26.0857C17.1314 26.0857 17.0727 26.0613 17.0232 26.0125C16.9752 25.9621 16.9513 25.9024 16.9513 25.8335L16.9488 22.6795C16.9488 22.6156 16.9719 22.5576 17.0182 22.5055C17.0645 22.4534 17.1199 22.4274 17.1843 22.4274C17.2603 22.4274 17.3223 22.4518 17.3703 22.5005C17.4198 22.5476 17.4446 22.6072 17.4446 22.6795L17.4471 25.8335C17.4471 25.9024 17.4223 25.9621 17.3727 26.0125C17.3248 26.0613 17.267 26.0857 17.1992 26.0857Z" fill="white"/>
<path d="M17.8103 22.682C17.8103 22.6232 17.8342 22.5694 17.8822 22.5207C17.9318 22.4719 17.9863 22.4476 18.0458 22.4476C18.1648 22.4476 18.245 22.498 18.2863 22.5988L19.4838 25.3671L20.5622 22.5711C20.6019 22.4652 20.6829 22.4123 20.8052 22.4123C20.8664 22.4123 20.9209 22.4366 20.9688 22.4854C21.0168 22.5324 21.0407 22.5862 21.0407 22.6467C21.0407 22.6938 21.035 22.7325 21.0234 22.7627L19.7292 26.1008C19.7127 26.1428 19.6829 26.1798 19.64 26.2117C19.5986 26.2453 19.5515 26.2621 19.4986 26.2621C19.3945 26.2621 19.3193 26.2117 19.273 26.1109L17.8326 22.8056C17.8177 22.7753 17.8103 22.7341 17.8103 22.682Z" fill="white"/>
<path d="M21.3419 22.6921C21.3419 22.6249 21.3659 22.5677 21.4138 22.5207C21.4634 22.4719 21.5221 22.4476 21.5898 22.4476L23.7146 22.4501H23.717C23.7848 22.4501 23.8427 22.4753 23.8906 22.5257C23.9402 22.5745 23.965 22.6333 23.965 22.7022C23.965 22.7711 23.9402 22.8308 23.8906 22.8812C23.8427 22.9299 23.7848 22.9543 23.717 22.9543H23.7146L21.8378 22.9518L21.8402 23.9855L23.5113 23.9981C23.5823 23.9981 23.641 24.0233 23.6873 24.0737C23.7352 24.1242 23.7592 24.1889 23.7592 24.2679C23.7592 24.3351 23.7336 24.3922 23.6823 24.4393C23.6311 24.4847 23.5741 24.5074 23.5113 24.5074H23.5088L21.8427 24.4948L21.8452 25.5612L23.7146 25.5587H23.717C23.7848 25.5587 23.8427 25.5839 23.8906 25.6344C23.9402 25.6831 23.965 25.7419 23.965 25.8108C23.965 25.8798 23.9402 25.9394 23.8906 25.9898C23.8427 26.0386 23.7848 26.063 23.717 26.063H23.7146L21.5973 26.0655C21.5295 26.0655 21.4708 26.0411 21.4213 25.9924C21.3733 25.9419 21.3494 25.8831 21.3494 25.8159L21.3419 22.6921Z" fill="white"/>
<path d="M26.8223 24.3279C26.8223 24.0112 27.0828 23.7466 27.3945 23.7466C27.7063 23.7466 27.9667 24.0112 27.9667 24.3279C27.9667 24.6446 27.7063 24.9092 27.3945 24.9092C27.0828 24.9092 26.8223 24.6446 26.8223 24.3279Z" fill="white"/>
<path d="M53.1108 24.3279C53.1108 24.0112 53.3713 23.7466 53.6831 23.7466C53.9948 23.7466 54.2553 24.0112 54.2553 24.3279C54.2553 24.6446 53.9948 24.9092 53.6831 24.9092C53.3713 24.9092 53.1108 24.6446 53.1108 24.3279Z" fill="white"/>
<path d="M31.9828 22.4469H32.0208C32.3183 22.4469 32.5795 22.5009 32.8043 22.6088C33.0291 22.715 33.2168 22.8595 33.3672 23.0423C33.5193 23.2234 33.6335 23.4271 33.7095 23.6534C33.7873 23.878 33.8262 24.1078 33.8262 24.3428C33.8262 24.7014 33.7476 25.0209 33.5903 25.3012C33.4348 25.5814 33.2041 25.8017 32.8981 25.9618C32.5938 26.122 32.2186 26.2021 31.7723 26.2021H31.6531L31.075 26.1969C31.0074 26.1951 30.9482 26.1681 30.8975 26.1159C30.8485 26.0637 30.824 26.001 30.824 25.9279L30.8417 22.7237C30.8417 22.6541 30.8662 22.594 30.9153 22.5435C30.9643 22.4913 31.0226 22.4643 31.0902 22.4626L31.9828 22.4469ZM33.3748 24.3271C33.3748 24.0033 33.308 23.7422 33.1745 23.5437C33.041 23.3452 32.8533 23.2007 32.6116 23.1102C32.3699 23.0179 32.0859 22.9718 31.7596 22.9718C31.6903 22.9718 31.621 22.9727 31.5517 22.9744C31.4841 22.9762 31.4156 22.9788 31.3463 22.9823L31.3311 25.6694L31.6582 25.6746C31.998 25.6746 32.2963 25.6328 32.5533 25.5492C32.8119 25.4639 33.0131 25.3229 33.1568 25.1262C33.3021 24.9295 33.3748 24.6631 33.3748 24.3271Z" fill="white"/>
<path d="M34.7452 26.2256C34.6759 26.2256 34.6159 26.2003 34.5651 26.1498C34.5161 26.0976 34.4916 26.0358 34.4916 25.9644L34.4891 22.6976C34.4891 22.6315 34.5127 22.5714 34.5601 22.5174C34.6074 22.4635 34.664 22.4365 34.73 22.4365C34.8077 22.4365 34.8711 22.4617 34.9201 22.5122C34.9708 22.561 34.9962 22.6228 34.9962 22.6976L34.9987 25.9644C34.9987 26.0358 34.9734 26.0976 34.9227 26.1498C34.8736 26.2003 34.8145 26.2256 34.7452 26.2256Z" fill="white"/>
<path d="M35.5501 24.3741C35.5501 24.1182 35.594 23.8719 35.6819 23.6351C35.7715 23.3983 35.8975 23.1877 36.0597 23.0032C36.2237 22.8169 36.4181 22.6698 36.6429 22.5618C36.8695 22.4539 37.1196 22.3999 37.3935 22.3999C37.6454 22.3999 37.8736 22.4356 38.0781 22.507C38.2843 22.5784 38.477 22.6793 38.6562 22.8099C38.7289 22.8604 38.7653 22.93 38.7653 23.0188C38.7653 23.0885 38.7399 23.1494 38.6892 23.2016C38.6402 23.2521 38.581 23.2773 38.5117 23.2773C38.4576 23.2773 38.4077 23.2608 38.3621 23.2277C38.2302 23.1355 38.0815 23.0623 37.9158 23.0084C37.7502 22.9527 37.5803 22.9248 37.4062 22.9248C37.2084 22.9248 37.0267 22.964 36.861 23.0423C36.697 23.1189 36.5542 23.2251 36.4325 23.3609C36.3125 23.495 36.2186 23.6482 36.151 23.8205C36.0851 23.9929 36.0521 24.1739 36.0521 24.3637C36.0521 24.6231 36.1071 24.8537 36.217 25.0557C36.3285 25.2576 36.4832 25.4161 36.681 25.531C36.8804 25.6459 37.112 25.7033 37.3757 25.7033C37.5211 25.7033 37.6648 25.6885 37.8068 25.6589C37.9505 25.6293 38.0815 25.5954 38.1998 25.5571L38.1922 24.6666H37.4188C37.3495 24.6666 37.2895 24.6413 37.2388 24.5909C37.1898 24.5386 37.1653 24.4768 37.1653 24.4055C37.1653 24.3341 37.1898 24.2731 37.2388 24.2227C37.2895 24.1704 37.3495 24.1443 37.4188 24.1443H38.4458C38.5151 24.1443 38.5742 24.1696 38.6233 24.22C38.674 24.2705 38.6993 24.3315 38.6993 24.4028L38.7095 25.7373V25.7399C38.7095 25.7886 38.6943 25.8356 38.6638 25.8809C38.6334 25.9261 38.5954 25.9575 38.5497 25.9749C38.3874 26.041 38.2083 26.1002 38.0122 26.1525C37.8161 26.2029 37.6099 26.2282 37.3935 26.2282C37.0385 26.2282 36.7215 26.149 36.4426 25.9906C36.1654 25.8321 35.9473 25.6136 35.7884 25.3351C35.6295 25.0566 35.5501 24.7362 35.5501 24.3741Z" fill="white"/>
<path d="M39.6209 26.2256C39.5516 26.2256 39.4916 26.2003 39.4408 26.1498C39.3918 26.0976 39.3673 26.0358 39.3673 25.9644L39.3648 22.6976C39.3648 22.6315 39.3884 22.5714 39.4358 22.5174C39.4831 22.4635 39.5397 22.4365 39.6057 22.4365C39.6834 22.4365 39.7468 22.4617 39.7958 22.5122C39.8465 22.561 39.8719 22.6228 39.8719 22.6976L39.8744 25.9644C39.8744 26.0358 39.8491 26.0976 39.7984 26.1498C39.7494 26.2003 39.6902 26.2256 39.6209 26.2256Z" fill="white"/>
<path d="M40.3497 22.7237C40.3497 22.6524 40.3742 22.5914 40.4233 22.5409C40.474 22.4887 40.534 22.4626 40.6033 22.4626H40.6058L43.1389 22.4469H43.144C43.2133 22.4469 43.2725 22.473 43.3215 22.5253C43.3722 22.5758 43.3975 22.6367 43.3975 22.7081C43.3975 22.7794 43.3722 22.8412 43.3215 22.8935C43.2725 22.944 43.2133 22.9692 43.144 22.9692H43.1414L42.1323 22.9744L42.1196 25.9723V25.9749C42.1196 26.0445 42.0942 26.1046 42.0435 26.1551C41.9945 26.2056 41.9353 26.2308 41.866 26.2308C41.7967 26.2308 41.7367 26.2056 41.686 26.1551C41.637 26.1046 41.6125 26.0445 41.6125 25.9749V25.9697L41.6251 22.977L40.6058 22.9849H40.6033C40.534 22.9849 40.474 22.9596 40.4233 22.9091C40.3742 22.8569 40.3497 22.7951 40.3497 22.7237Z" fill="white"/>
<path d="M45.1584 22.5566C45.177 22.5131 45.2083 22.4765 45.2522 22.4469C45.2978 22.4156 45.3443 22.3999 45.3917 22.3999C45.4373 22.3999 45.4829 22.4156 45.5286 22.4469C45.5759 22.4765 45.608 22.5131 45.6249 22.5566L47.0195 25.8887C47.0348 25.9235 47.0424 25.9592 47.0424 25.9958C47.0424 26.0672 47.017 26.129 46.9663 26.1812C46.9173 26.2317 46.8581 26.2569 46.7888 26.2569C46.7415 26.2569 46.695 26.2412 46.6493 26.2099C46.6037 26.1786 46.5716 26.1411 46.553 26.0976L46.1194 25.0609L44.6741 25.04L44.2303 26.1002C44.2134 26.1438 44.1822 26.1812 44.1365 26.2125C44.0909 26.2456 44.0444 26.2621 43.9971 26.2621C43.9278 26.2621 43.8678 26.2369 43.817 26.1864C43.768 26.1342 43.7435 26.0724 43.7435 26.001C43.7435 25.9644 43.7511 25.9288 43.7663 25.8939L45.1584 22.5566ZM45.3917 23.3217L44.8921 24.5204L45.8988 24.5334L45.3917 23.3217Z" fill="white"/>
<path d="M47.8244 26.2204C47.7551 26.2204 47.6951 26.1951 47.6444 26.1446C47.5954 26.0924 47.5709 26.0315 47.5709 25.9618L47.5633 22.648V22.6454C47.5633 22.5758 47.5878 22.5166 47.6368 22.4678C47.6875 22.4173 47.7475 22.3921 47.8168 22.3921C47.8861 22.3921 47.9453 22.4173 47.9943 22.4678C48.045 22.5166 48.0704 22.5758 48.0704 22.6454L48.078 25.6981L49.9975 25.6929H50C50.0693 25.6929 50.1285 25.719 50.1775 25.7712C50.2282 25.8217 50.2536 25.8826 50.2536 25.954C50.2536 26.0254 50.2282 26.0872 50.1775 26.1394C50.1285 26.1899 50.0693 26.2151 50 26.2151H49.9975L47.8244 26.2204Z" fill="white"/>
<path d="M57.3633 26.0857C57.2955 26.0857 57.2367 26.0613 57.1871 26.0125C57.1391 25.9621 57.1152 25.9024 57.1152 25.8335L57.1127 22.6795C57.1127 22.6156 57.1358 22.5576 57.1821 22.5055C57.2285 22.4534 57.2839 22.4274 57.3484 22.4274C57.4245 22.4274 57.4865 22.4518 57.5345 22.5005C57.5841 22.5476 57.6089 22.6072 57.6089 22.6795L57.6114 25.8335C57.6114 25.9024 57.5866 25.9621 57.537 26.0125C57.489 26.0613 57.4311 26.0857 57.3633 26.0857Z" fill="white"/>
<path d="M58.2005 22.6921C58.2005 22.6215 58.2254 22.5635 58.275 22.5182C58.3263 22.4711 58.3866 22.4476 58.4561 22.4476C58.5339 22.4476 58.5975 22.4795 58.6472 22.5434L60.5205 25.1276V22.6997C60.5205 22.6324 60.5445 22.5753 60.5925 22.5282C60.6421 22.4795 60.7008 22.4551 60.7686 22.4551C60.8365 22.4551 60.8944 22.4795 60.9423 22.5282C60.9919 22.5753 61.0168 22.6324 61.0168 22.6997L61.0143 25.8613C61.0143 25.9319 60.9886 25.9907 60.9374 26.0378C60.8877 26.0831 60.8282 26.1058 60.7587 26.1058C60.681 26.1058 60.6173 26.0722 60.5677 26.005L58.6968 23.4233V25.8587C58.6968 25.926 58.672 25.984 58.6224 26.0327C58.5744 26.0798 58.5165 26.1033 58.4487 26.1033C58.3809 26.1033 58.3221 26.0798 58.2725 26.0327C58.2245 25.984 58.2005 25.926 58.2005 25.8587V22.6921Z" fill="white"/>
<path d="M61.5439 22.6921C61.5439 22.6215 61.5687 22.5635 61.6183 22.5182C61.6696 22.4711 61.73 22.4476 61.7994 22.4476C61.8772 22.4476 61.9409 22.4795 61.9905 22.5434L63.8638 25.1276V22.6997C63.8638 22.6324 63.8878 22.5753 63.9358 22.5282C63.9854 22.4795 64.0441 22.4551 64.112 22.4551C64.1798 22.4551 64.2377 22.4795 64.2857 22.5282C64.3353 22.5753 64.3601 22.6324 64.3601 22.6997L64.3576 25.8613C64.3576 25.9319 64.332 25.9907 64.2807 26.0378C64.2311 26.0831 64.1715 26.1058 64.102 26.1058C64.0243 26.1058 63.9606 26.0722 63.911 26.005L62.0401 23.4233V25.8587C62.0401 25.926 62.0153 25.984 61.9657 26.0327C61.9177 26.0798 61.8598 26.1033 61.792 26.1033C61.7242 26.1033 61.6655 26.0798 61.6158 26.0327C61.5679 25.984 61.5439 25.926 61.5439 25.8587V22.6921Z" fill="white"/>
<path d="M66.562 22.4022C66.8151 22.4022 67.0475 22.4526 67.2593 22.5534C67.4727 22.6526 67.6579 22.7896 67.8151 22.9644C67.9722 23.1375 68.0938 23.3375 68.1798 23.5644C68.2658 23.7897 68.3088 24.0292 68.3088 24.283C68.3088 24.5368 68.2658 24.7755 68.1798 24.999C68.0955 25.2209 67.9755 25.4167 67.82 25.5865C67.6645 25.7562 67.4801 25.889 67.2667 25.9848C67.055 26.0806 66.8209 26.1285 66.5645 26.1285C66.3032 26.1285 66.0658 26.0806 65.8524 25.9848C65.639 25.8873 65.4554 25.7537 65.3016 25.5839C65.1494 25.4125 65.0319 25.215 64.9492 24.9915C64.8665 24.7662 64.8252 24.525 64.8252 24.2679C64.8252 24.0174 64.8682 23.7804 64.9542 23.5569C65.0419 23.3333 65.1634 23.135 65.3189 22.9619C65.4761 22.7871 65.6597 22.6501 65.8698 22.5509C66.0815 22.4518 66.3123 22.4022 66.562 22.4022ZM66.572 22.914C66.3272 22.914 66.1105 22.9787 65.9219 23.1081C65.735 23.2375 65.5877 23.409 65.4802 23.6224C65.3744 23.8342 65.3214 24.0662 65.3214 24.3183C65.3214 24.4897 65.3537 24.6536 65.4182 24.8099C65.4827 24.9662 65.572 25.1057 65.6862 25.2284C65.8003 25.3495 65.9318 25.4453 66.0807 25.5159C66.2312 25.5848 66.3917 25.6192 66.562 25.6192C66.7324 25.6192 66.8929 25.5831 67.0434 25.5108C67.1956 25.4385 67.3296 25.3411 67.4454 25.2184C67.5628 25.0957 67.6546 24.9578 67.7208 24.8049C67.787 24.6502 67.82 24.4923 67.82 24.3309C67.82 24.0704 67.7638 23.8334 67.6513 23.6199C67.5405 23.4048 67.3908 23.2333 67.2022 23.1056C67.0136 22.9778 66.8036 22.914 66.572 22.914Z" fill="white"/>
<path d="M68.6474 22.682C68.6474 22.6232 68.6714 22.5694 68.7193 22.5207C68.769 22.4719 68.8235 22.4476 68.8831 22.4476C69.0022 22.4476 69.0824 22.498 69.1238 22.5988L70.3222 25.3671L71.4016 22.5711C71.4413 22.4652 71.5223 22.4123 71.6447 22.4123C71.7059 22.4123 71.7605 22.4366 71.8085 22.4854C71.8565 22.5324 71.8804 22.5862 71.8804 22.6467C71.8804 22.6938 71.8747 22.7325 71.8631 22.7627L70.5679 26.1008C70.5513 26.1428 70.5215 26.1798 70.4785 26.2117C70.4372 26.2453 70.39 26.2621 70.3371 26.2621C70.2329 26.2621 70.1576 26.2117 70.1113 26.1109L68.6697 22.8056C68.6548 22.7753 68.6474 22.7341 68.6474 22.682Z" fill="white"/>
<path d="M73.606 22.5434C73.6242 22.5013 73.6548 22.466 73.6978 22.4375C73.7425 22.4072 73.788 22.3921 73.8343 22.3921C73.8789 22.3921 73.9236 22.4072 73.9683 22.4375C74.0146 22.466 74.046 22.5013 74.0625 22.5434L75.4272 25.7604C75.4421 25.794 75.4496 25.8285 75.4496 25.8638C75.4496 25.9327 75.4248 25.9924 75.3751 26.0428C75.3272 26.0915 75.2693 26.1159 75.2014 26.1159C75.1551 26.1159 75.1096 26.1008 75.065 26.0705C75.0203 26.0403 74.9889 26.0041 74.9707 25.9621L74.5464 24.9612L73.1321 24.941L72.6979 25.9646C72.6813 26.0067 72.6507 26.0428 72.6061 26.073C72.5614 26.105 72.5159 26.121 72.4696 26.121C72.4018 26.121 72.343 26.0966 72.2934 26.0478C72.2455 25.9974 72.2215 25.9377 72.2215 25.8688C72.2215 25.8335 72.2289 25.7991 72.2438 25.7655L73.606 22.5434ZM73.8343 23.2821L73.3455 24.4393L74.3305 24.4519L73.8343 23.2821Z" fill="white"/>
<path d="M75.7856 22.7047C75.7856 22.6358 75.8096 22.577 75.8576 22.5282C75.9072 22.4778 75.9659 22.4526 76.0337 22.4526H76.0362L78.515 22.4375H78.52C78.5878 22.4375 78.6457 22.4627 78.6936 22.5131C78.7433 22.5619 78.7681 22.6207 78.7681 22.6896C78.7681 22.7585 78.7433 22.8182 78.6936 22.8686C78.6457 22.9173 78.5878 22.9417 78.52 22.9417H78.5175L77.5299 22.9468L77.5175 25.8411V25.8436C77.5175 25.9109 77.4927 25.9688 77.4431 26.0176C77.3951 26.0663 77.3372 26.0907 77.2694 26.0907C77.2016 26.0907 77.1429 26.0663 77.0932 26.0176C77.0453 25.9688 77.0213 25.9109 77.0213 25.8436V25.8386L77.0337 22.9493L76.0362 22.9568H76.0337C75.9659 22.9568 75.9072 22.9325 75.8576 22.8837C75.8096 22.8333 75.7856 22.7736 75.7856 22.7047Z" fill="white"/>
<path d="M79.4813 26.0857C79.4135 26.0857 79.3547 26.0613 79.3051 26.0125C79.2572 25.9621 79.2332 25.9024 79.2332 25.8335L79.2307 22.6795C79.2307 22.6156 79.2538 22.5576 79.3002 22.5055C79.3465 22.4534 79.4019 22.4274 79.4664 22.4274C79.5425 22.4274 79.6045 22.4518 79.6525 22.5005C79.7021 22.5476 79.7269 22.6072 79.7269 22.6795L79.7294 25.8335C79.7294 25.9024 79.7046 25.9621 79.655 26.0125C79.607 26.0613 79.5491 26.0857 79.4813 26.0857Z" fill="white"/>
<path d="M81.9934 22.4022C82.2465 22.4022 82.4789 22.4526 82.6906 22.5534C82.904 22.6526 83.0893 22.7896 83.2464 22.9644C83.4036 23.1375 83.5252 23.3375 83.6112 23.5644C83.6972 23.7897 83.7402 24.0292 83.7402 24.283C83.7402 24.5368 83.6972 24.7755 83.6112 24.999C83.5268 25.2209 83.4069 25.4167 83.2514 25.5865C83.0959 25.7562 82.9115 25.889 82.6981 25.9848C82.4863 26.0806 82.2523 26.1285 81.9959 26.1285C81.7345 26.1285 81.4972 26.0806 81.2838 25.9848C81.0704 25.8873 80.8868 25.7537 80.7329 25.5839C80.5807 25.4125 80.4633 25.215 80.3806 24.9915C80.2979 24.7662 80.2565 24.525 80.2565 24.2679C80.2565 24.0174 80.2995 23.7804 80.3856 23.5569C80.4732 23.3333 80.5948 23.135 80.7503 22.9619C80.9074 22.7871 81.0911 22.6501 81.3011 22.5509C81.5129 22.4518 81.7436 22.4022 81.9934 22.4022ZM82.0033 22.914C81.7585 22.914 81.5418 22.9787 81.3532 23.1081C81.1663 23.2375 81.0191 23.409 80.9116 23.6224C80.8057 23.8342 80.7528 24.0662 80.7528 24.3183C80.7528 24.4897 80.785 24.6536 80.8495 24.8099C80.9141 24.9662 81.0034 25.1057 81.1175 25.2284C81.2317 25.3495 81.3632 25.4453 81.512 25.5159C81.6626 25.5848 81.823 25.6192 81.9934 25.6192C82.1638 25.6192 82.3242 25.5831 82.4748 25.5108C82.6269 25.4385 82.7609 25.3411 82.8767 25.2184C82.9942 25.0957 83.086 24.9578 83.1521 24.8049C83.2183 24.6502 83.2514 24.4923 83.2514 24.3309C83.2514 24.0704 83.1951 23.8334 83.0827 23.6199C82.9718 23.4048 82.8221 23.2333 82.6336 23.1056C82.445 22.9778 82.2349 22.914 82.0033 22.914Z" fill="white"/>
<path d="M84.2028 22.6921C84.2028 22.6215 84.2276 22.5635 84.2772 22.5182C84.3285 22.4711 84.3889 22.4476 84.4584 22.4476C84.5361 22.4476 84.5998 22.4795 84.6494 22.5434L86.5228 25.1276V22.6997C86.5228 22.6324 86.5467 22.5753 86.5947 22.5282C86.6443 22.4795 86.7031 22.4551 86.7709 22.4551C86.8387 22.4551 86.8966 22.4795 86.9446 22.5282C86.9942 22.5753 87.019 22.6324 87.019 22.6997L87.0165 25.8613C87.0165 25.9319 86.9909 25.9907 86.9396 26.0378C86.89 26.0831 86.8304 26.1058 86.761 26.1058C86.6832 26.1058 86.6195 26.0722 86.5699 26.005L84.699 23.4233V25.8587C84.699 25.926 84.6742 25.984 84.6246 26.0327C84.5766 26.0798 84.5187 26.1033 84.4509 26.1033C84.3831 26.1033 84.3244 26.0798 84.2748 26.0327C84.2268 25.984 84.2028 25.926 84.2028 25.8587V22.6921Z" fill="white"/>
<path d="M15.6699 16.5409C15.6699 17.2748 15.0958 17.8722 14.41 17.8722C13.8634 17.8722 13.3912 17.5098 13.2433 17.0306L12.2058 14.1239H3.99923L2.96174 17.0306C2.78536 17.5006 2.3132 17.8722 1.79502 17.8722C1.10045 17.8722 0.535156 17.2656 0.535156 16.5409C0.535156 16.3847 0.581161 16.1983 0.637033 16.042L6.08291 1.61626C6.3798 0.774695 7.17626 0.148438 8.09322 0.148438C9.01017 0.148438 9.80663 0.774695 10.1221 1.61626L15.568 16.042C15.6239 16.1786 15.6699 16.365 15.6699 16.5409ZM11.3908 11.8041L8.09322 2.56547L4.82305 11.8041H11.3897H11.3908Z" fill="white"/>
<path d="M31.8509 9.97371V13.9766C31.8509 14.6816 31.6745 15.2094 31.1837 15.6794C29.6467 17.1472 27.6452 18.0872 25.1912 18.0872C20.4585 18.0872 16.623 14.4755 16.623 9.03375C16.623 3.59197 20.4673 0 25.1912 0C27.6638 0 29.4802 0.920274 30.8693 2.37767C31.0917 2.58372 31.2122 2.89626 31.2122 3.23891C31.2122 3.92419 30.694 4.44279 30.0455 4.44279C29.7486 4.44279 29.4528 4.31546 29.2304 4.10015C28.2115 3.0236 26.8038 2.31863 25.1923 2.31863C21.7468 2.31863 19.1713 5.09798 19.1713 9.02218C19.1713 12.9464 21.7457 15.7454 25.1923 15.7454C27.0262 15.7454 28.5818 14.8054 29.3794 14.0137V10.872H25.0444C24.4517 10.872 23.951 10.3534 23.951 9.69705C23.951 9.0407 24.4418 8.57188 25.0444 8.57188H30.5461C31.3798 8.58114 31.852 9.08122 31.852 9.9714L31.8509 9.97371Z" fill="white"/>
<path d="M35.0192 16.5706V1.46877C35.0192 0.7638 35.5932 0.157227 36.279 0.157227C36.9648 0.157227 37.4929 0.7638 37.4929 1.46877V16.5706C37.4929 17.2755 36.9462 17.8821 36.279 17.8821C35.6118 17.8821 35.0192 17.2755 35.0192 16.5706Z" fill="white"/>
<path d="M41.1881 16.3645V1.46877C41.1881 0.7638 41.7622 0.157227 42.448 0.157227C43.1338 0.157227 43.6618 0.7638 43.6618 1.46877V15.4442H50.1737C50.7663 15.4442 51.2856 15.9431 51.2856 16.5694C51.2856 17.1957 50.7674 17.7443 50.1737 17.7443H42.5323C41.6614 17.7536 41.1892 17.2547 41.1892 16.3645H41.1881Z" fill="white"/>
<path d="M53.905 16.5706V1.46877C53.905 0.7638 54.4791 0.157227 55.1649 0.157227C55.8507 0.157227 56.3787 0.7638 56.3787 1.46877V16.5706C56.3787 17.2755 55.8321 17.8821 55.1649 17.8821C54.4977 17.8821 53.905 17.2755 53.905 16.5706Z" fill="white"/>
<path d="M64.1119 16.571V2.59552H59.9434C59.3508 2.59552 58.8501 2.09661 58.8501 1.47036C58.8501 0.844106 59.3409 0.29541 59.9434 0.29541H70.7245C71.3172 0.29541 71.8365 0.814009 71.8365 1.47036C71.8365 2.1267 71.3183 2.59552 70.7245 2.59552H66.5845V16.571C66.5845 17.276 66.0105 17.8825 65.3433 17.8825C64.6761 17.8825 64.1119 17.276 64.1119 16.571Z" fill="white"/>
<path d="M86.805 2.09501L81.507 10.4435V16.5706C81.507 17.2755 80.9603 17.8821 80.2658 17.8821C79.5712 17.8821 79.0245 17.2755 79.0245 16.5706V10.4435L73.6992 2.1147C73.5786 1.92833 73.5042 1.67481 73.5042 1.40973C73.5042 0.704763 74.0508 0.157227 74.6895 0.157227C75.1058 0.157227 75.4859 0.363275 75.7083 0.734858L80.2658 8.11443L84.7947 0.734858C85.0171 0.392214 85.3873 0.157227 85.8135 0.157227C86.4621 0.157227 86.9989 0.704763 86.9989 1.40973C86.9989 1.67366 86.9244 1.90864 86.8039 2.09501H86.805Z" fill="white"/>
</svg>
