<svg width="11" height="10" viewBox="0 0 11 10" fill="none" xmlns="http://www.w3.org/2000/svg">
<path d="M9.20104 1.55662H9.55604C9.68865 1.55662 9.81583 1.6093 9.9096 1.70307C10.0034 1.79684 10.056 1.92402 10.056 2.05662V5.55662C10.056 5.68923 10.0034 5.81641 9.9096 5.91018C9.81583 6.00395 9.68865 6.05662 9.55604 6.05662H8.55604L6.47104 3.13862C6.34977 2.96895 6.17849 2.84143 5.98116 2.77392C5.78383 2.70641 5.57033 2.70228 5.37054 2.76212L4.12754 3.13512C3.95463 3.18689 3.77093 3.19088 3.59593 3.14669C3.42093 3.1025 3.26115 3.01177 3.13354 2.88412L2.98704 2.73762C2.93474 2.68533 2.89469 2.62208 2.86977 2.55244C2.84486 2.4828 2.83571 2.4085 2.84298 2.33489C2.85025 2.26129 2.87376 2.19021 2.91181 2.12679C2.94987 2.06337 3.00152 2.00918 3.06304 1.96812L5.76354 0.168124C5.92475 0.0605789 6.11373 0.00219084 6.30751 6.04522e-05C6.50129 -0.00206994 6.69151 0.052149 6.85504 0.156124L8.93304 1.47862C9.01302 1.52945 9.10629 1.5565 9.20104 1.55662ZM2.06904 5.70412L1.26104 6.41112C1.20582 6.45953 1.16194 6.51951 1.13252 6.5868C1.1031 6.65408 1.08886 6.72702 1.09082 6.80043C1.09277 6.87385 1.11088 6.94592 1.14384 7.01155C1.1768 7.07717 1.22382 7.13473 1.28154 7.18012L3.85154 9.20012C3.90804 9.2446 3.97346 9.27636 4.04335 9.29325C4.11324 9.31014 4.18595 9.31176 4.25652 9.298C4.32709 9.28424 4.39386 9.25542 4.45228 9.2135C4.5107 9.17159 4.5594 9.11757 4.59504 9.05512L4.94704 8.43912C5.05186 8.25568 5.09589 8.04375 5.0728 7.83374C5.04972 7.62372 4.96071 7.42642 4.81854 7.27012L3.46754 5.78412C3.29136 5.59028 3.04616 5.47331 2.78464 5.45835C2.52312 5.44339 2.26618 5.53164 2.06904 5.70412ZM3.07854 1.05662H1.05554C0.922934 1.05662 0.795757 1.1093 0.701989 1.20307C0.60822 1.29684 0.555542 1.42402 0.555542 1.55662V5.31462C0.555569 5.51629 0.616571 5.71325 0.730542 5.87962C0.742665 5.86839 0.755001 5.85739 0.767542 5.84662L1.57504 5.13962C1.92004 4.83774 2.36972 4.68328 2.8274 4.70946C3.28509 4.73564 3.71422 4.94036 4.02254 5.27962L5.37354 6.76562C5.62218 7.03906 5.77787 7.3842 5.81829 7.75157C5.85871 8.11893 5.78179 8.48967 5.59854 8.81062L5.27104 9.38362C5.41233 9.4372 5.56393 9.45806 5.71444 9.44464C5.86495 9.43122 6.01046 9.38386 6.14004 9.30612L8.34504 7.98312C8.40416 7.9476 8.4553 7.90023 8.49523 7.84399C8.53516 7.78775 8.56302 7.72385 8.57706 7.65632C8.5911 7.58879 8.59102 7.51909 8.57682 7.45159C8.56262 7.3841 8.5346 7.32027 8.49454 7.26412L5.86104 3.57462C5.83072 3.53225 5.78791 3.50041 5.7386 3.48356C5.6893 3.46671 5.63596 3.46568 5.58604 3.48062L4.34304 3.85312C4.04044 3.9439 3.71891 3.95107 3.41256 3.87386C3.10622 3.79666 2.82648 3.63797 2.60304 3.41462L2.45654 3.26812C2.32573 3.13739 2.22557 2.97925 2.16326 2.80512C2.10096 2.63099 2.07807 2.44521 2.09624 2.26116C2.11442 2.07712 2.1732 1.8994 2.26836 1.74082C2.36353 1.58224 2.49269 1.44675 2.64654 1.34412L3.07854 1.05662Z" fill="white"/>
</svg>
