<svg width="48" height="48" viewBox="0 0 48 48" fill="none" xmlns="http://www.w3.org/2000/svg">
<path fill-rule="evenodd" clip-rule="evenodd" d="M26 33H29.5C36.404 33 42 27.404 42 20.5C42 13.596 36.404 8 29.5 8H18.5C11.596 8 6 13.596 6 20.5C6 28.415 11.217 33.254 16.924 36.226C19.759 37.703 22.614 38.656 24.773 39.241C25.215 39.361 25.626 39.465 26 39.554V33ZM28 42C28 42 27.244 41.89 26 41.608C20.236 40.3 4 35.305 4 20.5C4 12.492 10.492 6 18.5 6H29.5C37.508 6 44 12.492 44 20.5C44 28.508 37.508 35 29.5 35H28V42Z" fill="#A95FE3"/>
<path fill-rule="evenodd" clip-rule="evenodd" d="M24 22C24.2652 22 24.5196 21.8946 24.7071 21.7071C24.8946 21.5196 25 21.2652 25 21C25 20.7348 24.8946 20.4804 24.7071 20.2929C24.5196 20.1054 24.2652 20 24 20C23.7348 20 23.4804 20.1054 23.2929 20.2929C23.1054 20.4804 23 20.7348 23 21C23 21.2652 23.1054 21.5196 23.2929 21.7071C23.4804 21.8946 23.7348 22 24 22ZM24 24C24.7956 24 25.5587 23.6839 26.1213 23.1213C26.6839 22.5587 27 21.7956 27 21C27 20.2044 26.6839 19.4413 26.1213 18.8787C25.5587 18.3161 24.7956 18 24 18C23.2044 18 22.4413 18.3161 21.8787 18.8787C21.3161 19.4413 21 20.2044 21 21C21 21.7956 21.3161 22.5587 21.8787 23.1213C22.4413 23.6839 23.2044 24 24 24ZM32 22C32.2652 22 32.5196 21.8946 32.7071 21.7071C32.8946 21.5196 33 21.2652 33 21C33 20.7348 32.8946 20.4804 32.7071 20.2929C32.5196 20.1054 32.2652 20 32 20C31.7348 20 31.4804 20.1054 31.2929 20.2929C31.1054 20.4804 31 20.7348 31 21C31 21.2652 31.1054 21.5196 31.2929 21.7071C31.4804 21.8946 31.7348 22 32 22ZM32 24C32.7956 24 33.5587 23.6839 34.1213 23.1213C34.6839 22.5587 35 21.7956 35 21C35 20.2044 34.6839 19.4413 34.1213 18.8787C33.5587 18.3161 32.7956 18 32 18C31.2044 18 30.4413 18.3161 29.8787 18.8787C29.3161 19.4413 29 20.2044 29 21C29 21.7956 29.3161 22.5587 29.8787 23.1213C30.4413 23.6839 31.2044 24 32 24ZM16 22C16.2652 22 16.5196 21.8946 16.7071 21.7071C16.8946 21.5196 17 21.2652 17 21C17 20.7348 16.8946 20.4804 16.7071 20.2929C16.5196 20.1054 16.2652 20 16 20C15.7348 20 15.4804 20.1054 15.2929 20.2929C15.1054 20.4804 15 20.7348 15 21C15 21.2652 15.1054 21.5196 15.2929 21.7071C15.4804 21.8946 15.7348 22 16 22ZM16 24C16.7956 24 17.5587 23.6839 18.1213 23.1213C18.6839 22.5587 19 21.7956 19 21C19 20.2044 18.6839 19.4413 18.1213 18.8787C17.5587 18.3161 16.7956 18 16 18C15.2044 18 14.4413 18.3161 13.8787 18.8787C13.3161 19.4413 13 20.2044 13 21C13 21.7956 13.3161 22.5587 13.8787 23.1213C14.4413 23.6839 15.2044 24 16 24Z" fill="#A95FE3"/>
</svg>
