<svg width="74" height="57" viewBox="0 0 74 57" fill="none" xmlns="http://www.w3.org/2000/svg">
<path d="M16.25 57C11.0833 57 7.08333 55.4167 4.25 52.25C1.41667 49.0833 0 44.75 0 39.25C0 31.25 2.33333 23.9167 7 17.25C11.6667 10.5833 18.3333 4.83333 27 0L32.75 10.5C23.5833 16.1667 18.25 22.1667 16.75 28.5L18.75 28.25C22.4167 28.25 25.5 29.5833 28 32.25C30.5 34.75 31.75 37.8333 31.75 41.5C31.75 46.1667 30.3333 49.9167 27.5 52.75C24.6667 55.5833 20.9167 57 16.25 57ZM57.5 57C52.3333 57 48.3333 55.4167 45.5 52.25C42.6667 49.0833 41.25 44.75 41.25 39.25C41.25 31.25 43.5833 23.9167 48.25 17.25C52.9167 10.5833 59.5833 4.83333 68.25 0L74 10.5C64.8333 16.3333 59.5 22.3333 58 28.5L60 28.25C63.6667 28.25 66.75 29.5833 69.25 32.25C71.75 34.75 73 37.8333 73 41.5C73 46.1667 71.5833 49.9167 68.75 52.75C65.9167 55.5833 62.1667 57 57.5 57Z" fill="white" fill-opacity="0.05"/>
</svg>
