<svg width="44" height="44" viewBox="0 0 44 44" fill="none" xmlns="http://www.w3.org/2000/svg">
<g clip-path="url(#clip0_537_612)">
<path d="M39.1875 5.77495C38.7147 5.4691 38.1741 5.28407 37.6131 5.23612C37.052 5.18817 36.4878 5.27877 35.97 5.49995L19.0025 12.1825C18.6008 12.3459 18.1712 12.43 17.7375 12.43H6.875C5.96332 12.43 5.08898 12.7921 4.44432 13.4368C3.79966 14.0814 3.4375 14.9558 3.4375 15.8675V16.1425H0V24.3925H3.4375V24.75C3.45904 25.6473 3.83069 26.5006 4.47303 27.1275C5.11537 27.7544 5.97743 28.1052 6.875 28.105L11 36.85C11.2793 37.4388 11.7191 37.937 12.2687 38.2873C12.8184 38.6375 13.4557 38.8256 14.1075 38.83H15.84C16.7469 38.8227 17.6142 38.4573 18.2529 37.8135C18.8916 37.1696 19.25 36.2994 19.25 35.3925V28.435L35.97 35.1175C36.3813 35.2811 36.8199 35.3651 37.2625 35.365C37.9492 35.3539 38.6179 35.1437 39.1875 34.76C39.6398 34.4546 40.0129 34.0459 40.2759 33.5676C40.5389 33.0894 40.6843 32.5555 40.7 32.01V8.60746C40.6975 8.04787 40.5584 7.49737 40.2948 7.00375C40.0312 6.51013 39.6511 6.08832 39.1875 5.77495ZM15.8125 15.8675V24.75H6.875V15.8675H15.8125ZM15.8125 35.3925H14.08L10.6975 28.105H15.8125V35.3925ZM20.2675 25.1625C19.941 24.9956 19.6005 24.8576 19.25 24.75V15.675C19.5972 15.6033 19.9376 15.5021 20.2675 15.3725L37.2625 8.60746V31.9275L20.2675 25.1625ZM40.7825 16.83V23.705C41.6942 23.705 42.5685 23.3428 43.2132 22.6981C43.8578 22.0535 44.22 21.1791 44.22 20.2675C44.22 19.3558 43.8578 18.4814 43.2132 17.8368C42.5685 17.1921 41.6942 16.83 40.7825 16.83Z" fill="#A95FE3"/>
</g>
<defs>
<clipPath id="clip0_537_612">
<rect width="44" height="44" fill="white"/>
</clipPath>
</defs>
</svg>
